<?xml version="1.0" encoding="utf-8"?>
<!-- Generator: Adobe Illustrator 21.1.0, SVG Export Plug-In . SVG Version: 6.00 Build 0)  -->
<svg version="1.1" id="Warstwa_1" xmlns="http://www.w3.org/2000/svg" xmlns:xlink="http://www.w3.org/1999/xlink" x="0px" y="0px"
	 viewBox="0 0 518 136" style="enable-background:new 0 0 518 136;" xml:space="preserve">
<style type="text/css">
	.st0{fill:#2D6B99;}
	.st1{fill:none;stroke:#FDEE69;stroke-width:3;stroke-miterlimit:10;}
	.st2{fill:#FDEE69;}
</style>
<g>
	<path class="st0" d="M109.3,69.5l-1.6-28c0-0.1,0-0.1,0-0.2c-0.7-6.1-3.8-9-10-9l0,0c-16.2-0.1-28.7,0-35.7,0c-1.6,0-4.8,0.2-7,2.2
		c-1.7,1.5-2.6,3.7-3,6.8c0,0.1,0,0.1,0,0.2l-1.6,28c0,0,0,0.1,0,0.2c-0.3,9.5,5,17.1,6.9,19.5c8,10.3,20.2,12,22.5,12.3
		c0,0,0,0,0,0v0c0,0,0,0,0,0c2.3-0.3,14.5-1.9,22.5-12.3c1.9-2.4,7.1-9.9,6.9-19.5C109.3,69.6,109.3,69.5,109.3,69.5z"/>
	<path class="st1" d="M79.9,97.6c-3.5-0.5-13.1-2.5-19.4-10.7c-1.9-2.4-6.3-9-6.1-17L56,41.4c0.2-2,0.8-3.4,1.6-4.1
		c1.2-1.1,3.5-1.1,4.3-1.1l1.9,0c4.2,0,10-0.1,17.1-0.1c5.8,0,11.5,0,17.1,0.1c4,0,5.4,1.2,5.9,5.2l1.6,28.5c0.2,8-4.2,14.6-6.1,17
		C92.9,95,83.3,97.1,79.9,97.6z"/>
	<rect x="77.4" y="54.3" class="st2" width="5" height="5"/>
	<path class="st2" d="M96.2,61.6c-0.4-0.3-0.6-0.9-0.6-1.9v-8.3c0-1.6-0.3-2.8-0.9-3.5c-0.6-0.7-1.6-1-3.1-1H90h-0.7h-1.7v2.5h1.7
		h0.2c0.6,0,1,0.1,1.3,0.3c0.3,0.2,0.4,0.5,0.4,1.1v8.9c0,1.2,0.3,2.2,0.9,3c0.6,0.8,1.3,1.2,2.2,1.4c-0.9,0.1-1.6,0.5-2.2,1.3
		c-0.6,0.8-0.9,1.8-0.9,3v8.9c0,0.5-0.1,0.9-0.4,1.1c-0.3,0.2-0.7,0.3-1.3,0.3h-0.2h-1.7v2.5h1.7H90h1.7c1.4,0,2.4-0.3,3.1-1
		c0.6-0.7,0.9-1.8,0.9-3.4v-8.3c0-0.9,0.2-1.6,0.6-1.9c0.4-0.3,2.2-0.5,3.2-0.5v-4C98.4,62,96.6,61.9,96.2,61.6z"/>
	<path class="st2" d="M63.6,66.5c0.4,0.3,0.6,0.9,0.6,1.9v8.3c0,1.6,0.3,2.8,0.9,3.4c0.6,0.7,1.6,1,3.1,1h1.7h0.7h1.7v-2.5h-1.7
		h-0.2c-0.6,0-1-0.1-1.3-0.3c-0.3-0.2-0.4-0.5-0.4-1.1v-8.9c0-1.2-0.3-2.2-0.9-3c-0.6-0.8-1.3-1.2-2.2-1.4c0.9-0.1,1.6-0.5,2.2-1.3
		c0.6-0.8,0.9-1.8,0.9-3v-8.9c0-0.5,0.1-0.9,0.4-1.1c0.3-0.2,0.7-0.3,1.3-0.3h0.2h1.7v-2.5h-1.7h-0.7h-1.7c-1.4,0-2.4,0.3-3.1,1
		c-0.6,0.7-0.9,1.8-0.9,3.4v8.3c0,0.9-0.2,1.6-0.6,1.9c-0.4,0.3-2.2,0.5-3.2,0.5v4C61.4,66,63.2,66.2,63.6,66.5z"/>
	<polygon class="st2" points="77.4,66.7 77.4,71.7 79.2,71.7 79.2,71.7 77.8,76.6 80.1,76.6 82.3,71.7 82.3,71.7 82.3,68.1 
		82.3,66.7 	"/>
	<g>
		<path class="st0" d="M153.4,44.5c2.4,2.8,3.6,6.5,3.6,11.1c0,4.5-1.2,8.1-3.5,10.8c-2.3,2.7-5.4,4.1-9.2,4.1h-7.2
			c-0.2,0-0.3,0.1-0.3,0.3v18.7c0,0.5-0.3,0.8-0.8,0.8h-5.8c-0.5,0-0.8-0.3-0.8-0.8V41.1c0-0.5,0.3-0.8,0.8-0.8h13.6
			C147.8,40.3,150.9,41.7,153.4,44.5z M147.8,62.3c1.3-1.6,1.9-3.8,1.9-6.5c0-2.8-0.6-5-1.9-6.7c-1.3-1.6-3-2.5-5-2.5h-5.6
			c-0.2,0-0.3,0.1-0.3,0.3v17.5c0,0.2,0.1,0.3,0.3,0.3h5.6C144.8,64.7,146.5,63.9,147.8,62.3z"/>
		<path class="st0" d="M181.1,52c0.4,0.2,0.5,0.5,0.4,1l-1.1,5.8c-0.1,0.5-0.4,0.6-0.9,0.5c-0.7-0.3-1.4-0.4-2.1-0.4
			c-0.3,0-0.8,0.1-1.4,0.2c-1.6,0.2-2.9,1-3.9,2.6c-1,1.6-1.6,3.5-1.6,5.7v22.3c0,0.5-0.3,0.8-0.8,0.8h-5.8c-0.5,0-0.8-0.3-0.8-0.8
			V52.3c0-0.5,0.3-0.8,0.8-0.8h5.8c0.5,0,0.8,0.3,0.8,0.8v4.4c0,0.2,0,0.2,0.1,0.3c0.1,0,0.1,0,0.2-0.2c1.5-3.8,3.8-5.6,7.1-5.6
			C179.1,51.2,180.2,51.5,181.1,52z"/>
		<path class="st0" d="M188.7,87.7c-2.3-2.2-3.5-5.1-3.5-8.8V63.1c0-3.6,1.2-6.5,3.5-8.8c2.3-2.2,5.5-3.4,9.4-3.4
			c4,0,7.1,1.1,9.5,3.4c2.3,2.2,3.5,5.2,3.5,8.8v15.8c0,3.7-1.2,6.6-3.5,8.8c-2.3,2.2-5.5,3.3-9.5,3.3S191,89.9,188.7,87.7z
			 M202.2,82.9c1.1-1.1,1.6-2.7,1.6-4.5V63.5c0-1.8-0.5-3.3-1.6-4.5c-1.1-1.2-2.4-1.8-4-1.8c-1.6,0-3,0.6-4,1.8
			c-1,1.2-1.6,2.7-1.6,4.5v14.8c0,1.9,0.5,3.4,1.6,4.5c1,1.1,2.4,1.7,4,1.7C199.8,84.6,201.1,84,202.2,82.9z"/>
		<path class="st0" d="M236.6,51.6h5.8c0.5,0,0.8,0.3,0.8,0.8v36.9c0,5.3-1.2,7.2-3.7,10.1c-2.4,2.9-6.6,4.4-12.6,4.4l-3.2-0.1
			c-0.5-0.1-0.8-0.3-0.8-0.8v-4.9c0-0.5,0.3-0.8,0.8-0.8c4.2,0.2,7.8-0.2,9.7-2.5c1.5-1.8,2.3-2.4,2.3-6.2v-1.6c0-0.1,0-0.2-0.1-0.2
			c-0.1,0-0.2,0-0.3,0.1c-1.7,2.3-4.2,3.5-7.4,3.5c-3.4,0-5.9-1.1-7.7-3.2c-1.8-2.2-2.7-5.1-2.7-8.8V63.1c0-3.8,0.9-6.7,2.7-8.9
			c1.8-2.2,4.4-3.2,7.7-3.2c3.3,0,5.8,1.2,7.4,3.5c0.1,0.1,0.2,0.1,0.3,0.1c0.1,0,0.1-0.1,0.1-0.2v-2
			C235.8,51.8,236.1,51.6,236.6,51.6z M234.3,82.3c1-1.1,1.5-2.6,1.5-4.5V63.5c0-1.8-0.5-3.3-1.5-4.5c-1-1.2-2.3-1.8-3.9-1.8
			s-2.9,0.6-4,1.8c-1,1.2-1.5,2.7-1.5,4.5v14.3c0,1.8,0.5,3.3,1.5,4.5c1,1.1,2.3,1.7,4,1.7S233.3,83.5,234.3,82.3z"/>
		<path class="st0" d="M268.5,52c0.4,0.2,0.5,0.5,0.4,1l-1.1,5.8c-0.1,0.5-0.4,0.6-0.9,0.5c-0.7-0.3-1.4-0.4-2.1-0.4
			c-0.3,0-0.8,0.1-1.4,0.2c-1.6,0.2-2.9,1-3.9,2.6c-1,1.6-1.6,3.5-1.6,5.7v22.3c0,0.5-0.3,0.8-0.8,0.8h-5.8c-0.5,0-0.8-0.3-0.8-0.8
			V52.3c0-0.5,0.3-0.8,0.8-0.8h5.8c0.5,0,0.8,0.3,0.8,0.8v4.4c0,0.2,0,0.2,0.1,0.3c0.1,0,0.1,0,0.2-0.2c1.5-3.8,3.8-5.6,7.1-5.6
			C266.5,51.2,267.6,51.5,268.5,52z"/>
		<path class="st0" d="M295.1,54.5c2.4,2.3,3.5,5.4,3.5,9.2v25.9c0,0.5-0.3,0.8-0.8,0.8h-5.8c-0.5,0-0.8-0.3-0.8-0.8v-1.7
			c0-0.1,0-0.2-0.1-0.2c-0.1-0.1-0.2,0-0.3,0.1c-1.8,2.1-4.4,3.2-7.9,3.2c-2.9,0-5.5-0.8-7.7-2.5c-2.2-1.6-3.3-4.6-3.3-8.8
			c0-4.4,1.3-7.7,4-9.7c2.7-2.1,6.2-3.1,10.5-3.1h4.4c0.2,0,0.3-0.1,0.3-0.3v-2.2c0-2.1-0.5-3.8-1.5-5.1c-1-1.3-2.3-1.9-4-1.9
			c-1.3,0-2.3,0.4-3.2,1.3c-0.9,0.9-1.4,2-1.5,3.4c0,0.5-0.3,0.8-0.8,0.8h-6.2c-0.5,0-0.8-0.3-0.8-0.8c0.3-3.3,1.5-5.9,3.9-7.9
			c2.3-2,5.2-3,8.7-3C289.7,51,292.7,52.1,295.1,54.5z M289.3,82.9c1.3-1.1,2-2.7,2-4.7V73c0-0.2-0.1-0.3-0.3-0.3h-4.7
			c-2,0-3.7,0.5-4.9,1.6c-1.2,1.1-1.8,2.7-1.8,4.8c0,1.8,0.5,3.2,1.4,4.1c0.9,0.9,2.1,1.4,3.7,1.4C286.4,84.6,288,84,289.3,82.9z"/>
		<path class="st0" d="M345.8,54.4c1.7,2.3,2.6,5.4,2.6,9.5v25.7c0,0.5-0.3,0.8-0.8,0.8h-5.7c-0.5,0-0.8-0.3-0.8-0.8V64.5
			c0-2.2-0.5-4-1.4-5.2c-0.9-1.2-2.1-1.9-3.7-1.9c-1.6,0-2.9,0.6-3.9,1.9c-1,1.2-1.4,3-1.4,5.1v25.2c0,0.5-0.3,0.8-0.8,0.8h-5.7
			c-0.5,0-0.8-0.3-0.8-0.8V64.5c0-2.2-0.5-4-1.4-5.2c-0.9-1.2-2.1-1.9-3.7-1.9c-1.6,0-2.9,0.6-3.9,1.9c-1,1.2-1.4,3-1.4,5.1v25.2
			c0,0.5-0.3,0.8-0.8,0.8h-5.7c-0.5,0-0.8-0.3-0.8-0.8V52.3c0-0.5,0.3-0.8,0.8-0.8h5.7c0.5,0,0.8,0.3,0.8,0.8v1.9
			c0,0.1,0,0.2,0.1,0.2c0.1,0.1,0.2,0,0.3-0.1c1-1.1,2.2-2,3.5-2.5c1.3-0.6,2.6-0.8,4-0.8c3.9,0,6.6,1.7,8.3,5.1
			c0.1,0.1,0.1,0.1,0.2,0.1c0.1,0,0.2-0.1,0.2-0.3c1-1.7,2.3-3,3.9-3.7c1.6-0.8,3.2-1.1,4.9-1.1C341.6,51,344.1,52.2,345.8,54.4z"/>
		<path class="st0" d="M356.5,44.1c-0.9-0.9-1.4-2.1-1.4-3.5c0-1.4,0.5-2.6,1.4-3.5c0.9-0.9,2.1-1.4,3.5-1.4c1.5,0,2.7,0.4,3.5,1.3
			c0.9,0.9,1.3,2.1,1.3,3.5c0,1.4-0.5,2.6-1.4,3.5c-0.9,0.9-2.1,1.4-3.5,1.4C358.6,45.5,357.4,45,356.5,44.1z M356.4,89.6V52.3
			c0-0.5,0.3-0.8,0.8-0.8h5.8c0.5,0,0.8,0.3,0.8,0.8v37.3c0,0.5-0.3,0.8-0.8,0.8h-5.8C356.7,90.4,356.4,90.1,356.4,89.6z"/>
		<path class="st0" d="M374.1,88c-2.2-1.9-3.3-4.4-3.3-7.5v-0.7c0-0.5,0.3-0.8,0.8-0.8h5.4c0.5,0,0.8,0.3,0.8,0.8v0.5
			c0,1.4,0.5,2.5,1.6,3.5c1.1,0.9,2.4,1.4,4,1.4c1.5,0,2.8-0.5,3.7-1.4c0.9-0.9,1.4-2.1,1.4-3.5c0-1.1-0.3-2.1-1-2.8
			c-0.7-0.8-1.4-1.4-2.3-1.8c-0.9-0.4-2.2-1-4.1-1.8c-2-0.9-3.6-1.7-4.9-2.5c-1.3-0.8-2.5-2-3.5-3.5c-1-1.5-1.5-3.5-1.5-5.8
			c0-3.5,1.1-6.1,3.2-8.1c2.2-1.9,5.1-2.9,8.7-2.9c3.8,0,6.7,1,8.9,3c2.2,2,3.2,4.7,3.2,8.1v0.2c0,0.5-0.3,0.8-0.8,0.8h-5.3
			c-0.5,0-0.8-0.3-0.8-0.8v-0.5c0-1.4-0.5-2.5-1.4-3.5c-1-1-2.2-1.4-3.7-1.4c-1.6,0-2.8,0.5-3.7,1.4c-0.9,1-1.4,2.1-1.4,3.5
			c0,1.1,0.3,2,0.9,2.7c0.6,0.7,1.3,1.3,2.2,1.7c0.9,0.4,2.2,1.1,4.1,1.9c2.1,0.9,3.8,1.8,5.2,2.6c1.4,0.8,2.6,2,3.6,3.5
			c1,1.5,1.6,3.4,1.6,5.7c0,3.3-1.1,5.9-3.4,7.9c-2.3,1.9-5.3,2.9-9.2,2.9C379.4,90.8,376.3,89.9,374.1,88z"/>
		<path class="st0" d="M416,56.9h-5.3c-0.2,0-0.3,0.1-0.3,0.3v21.4c0,2,0.4,3.4,1.1,4.2c0.7,0.8,1.8,1.2,3.4,1.1h0.7
			c0.5,0,0.8,0.3,0.8,0.8v4.9c0,0.5-0.3,0.8-0.8,0.8h-2.4c-3.3,0-5.7-0.6-7.4-1.9c-1.7-1.3-2.5-3.7-2.5-7.2v-24
			c0-0.2-0.1-0.3-0.3-0.3h-3c-0.5,0-0.8-0.3-0.8-0.8v-3.8c0-0.5,0.3-0.8,0.8-0.8h3c0.2,0,0.3-0.1,0.3-0.3v-8.6
			c0-0.5,0.3-0.8,0.8-0.8h5.6c0.5,0,0.8,0.3,0.8,0.8v8.6c0,0.2,0.1,0.3,0.3,0.3h5.3c0.5,0,0.8,0.3,0.8,0.8v3.8
			C416.8,56.6,416.5,56.9,416,56.9z"/>
		<path class="st0" d="M440.6,52c0.4,0.2,0.5,0.5,0.4,1l-1.1,5.8c-0.1,0.5-0.4,0.6-0.9,0.5c-0.7-0.3-1.4-0.4-2.1-0.4
			c-0.3,0-0.8,0.1-1.4,0.2c-1.6,0.2-2.9,1-3.9,2.6c-1,1.6-1.6,3.5-1.6,5.7v22.3c0,0.5-0.3,0.8-0.8,0.8h-5.8c-0.5,0-0.8-0.3-0.8-0.8
			V52.3c0-0.5,0.3-0.8,0.8-0.8h5.8c0.5,0,0.8,0.3,0.8,0.8v4.4c0,0.2,0,0.2,0.1,0.3c0.1,0,0.1,0,0.2-0.2c1.5-3.8,3.8-5.6,7.1-5.6
			C438.6,51.2,439.6,51.5,440.6,52z"/>
		<path class="st0" d="M443.9,89.6v-5.3c0-0.4,0.1-0.7,0.2-1l14.3-24.6c0-0.1,0-0.2,0-0.3c-0.1-0.1-0.1-0.1-0.2-0.1H445
			c-0.5,0-0.8-0.3-0.8-0.8v-5.2c0-0.5,0.3-0.8,0.8-0.8h21.6c0.5,0,0.8,0.3,0.8,0.8v5.4c0,0.4-0.1,0.7-0.2,1l-14.6,24.6
			c-0.1,0.1-0.1,0.2,0,0.3c0.1,0.1,0.1,0.1,0.2,0.1h14.1c0.5,0,0.8,0.3,0.8,0.8v5.1c0,0.5-0.3,0.8-0.8,0.8h-22.1
			C444.2,90.4,443.9,90.1,443.9,89.6z"/>
	</g>
</g>
</svg>
